<svg width="32" height="32" version="1.1" viewBox="0 0 32 32" xmlns="http://www.w3.org/2000/svg">
 <path d="m8 2h16a6 6 45 0 1 6 6v16a6 6 135 0 1-6 6h-16a6 6 45 0 1-6-6v-16a6 6 135 0 1 6-6z" fill="#878787" fill-rule="evenodd" stroke-linecap="round" stroke-linejoin="round"/>
 <path d="m11.018 11.017625v10.01875a4.0075 4.0075 45 0 0 4.0075 4.0075h4.0075a3.005625 3.005625 135 0 0 3.005625-3.005625h-7.013125a1.001875 1.001875 45 0 1-1.001875-1.001875v-10.01875a1.001875 1.001875 135 0 1 1.001875-1.001875h7.013125a3.005625 3.005625 45 0 0-3.005625-3.005625h-4.0075a4.0075 4.0075 135 0 0-4.0075 4.0075z" fill="#feb13a" fill-rule="evenodd" stroke-width="1.001875"/>
</svg>
