<svg width="24" height="24" version="1.1" viewBox="0 0 24 24" xmlns="http://www.w3.org/2000/svg">
 <path d="m5.487164 0.997h12.971672a4.490164 4.490164 45 0 1 4.490164 4.490164v12.971672a4.490164 4.490164 135 0 1-4.490164 4.490164h-12.971672a4.490164 4.490164 45 0 1-4.490164-4.490164v-12.971672a4.490164 4.490164 135 0 1 4.490164-4.490164z" fill="#878787" fill-rule="evenodd" stroke-linecap="round" stroke-linejoin="round" stroke-width=".997836"/>
 <path d="m8.01 8.12025v7.7875a3.115 3.115 45 0 0 3.115 3.115h3.115a2.33625 2.33625 135 0 0 2.33625-2.33625h-5.45125a.77875.77875 45 0 1 -.77875-.77875v-7.7875a.77875.77875 135 0 1 .77875-.77875h5.45125a2.33625 2.33625 45 0 0 -2.33625-2.33625h-3.115a3.115 3.115 135 0 0 -3.115 3.115z" fill="#feb13a" fill-rule="evenodd" stroke-width="1.00125"/>
</svg>
