<svg width="64" height="64" version="1.1" viewBox="0 0 64 64" xmlns="http://www.w3.org/2000/svg">
 <path d="m16 4h32a12 12 45 0 1 12 12v32a12 12 135 0 1-12 12h-32a12 12 45 0 1-12-12v-32a12 12 135 0 1 12-12z" fill="#878787" fill-rule="evenodd" stroke-linecap="round" stroke-linejoin="round"/>
 <path d="m20.994 21.994125v19.99375a7.9975 7.9975 45 0 0 7.9975 7.9975h7.9975a5.998125 5.998125 135 0 0 5.998125-5.998125h-13.995625a1.999375 1.999375 45 0 1-1.999375-1.999375v-19.99375a1.999375 1.999375 135 0 1 1.999375-1.999375h13.995625a5.998125 5.998125 45 0 0-5.998125-5.998125h-7.9975a7.9975 7.9975 135 0 0-7.9975 7.9975z" fill="#feb13a" fill-rule="evenodd" stroke-width=".999916"/>
</svg>
