<svg width="48" height="48" version="1.1" viewBox="0 0 48 48" xmlns="http://www.w3.org/2000/svg">
 <path d="m12 3h24a9 9 45 0 1 9 9v24a9 9 135 0 1-9 9h-24a9 9 45 0 1-9-9v-24a9 9 135 0 1 9-9z" fill="#878787" fill-rule="evenodd" stroke-linecap="round" stroke-linejoin="round" stroke-width="1.000125"/>
 <path d="m15.983931 16.983125v13.98375a5.993181 5.993181 45 0 0 5.992842 5.993181h5.993181a3.995454 3.995454 135 0 0 3.995115-3.995454h-9.988296a1.997727 1.997727 45 0 1-1.997727-1.997727v-13.98375a1.997727 1.997727 135 0 1 1.997727-1.997727h9.988296a3.995454 3.995454 45 0 0-3.995115-3.995454h-5.993181a5.993181 5.993181 135 0 0-5.992842 5.993181z" fill="#feb13a" fill-rule="evenodd" stroke-width=".998694"/>
</svg>
