<svg width="20" height="20" version="1.1" viewBox="0 0 20 20" xmlns="http://www.w3.org/2000/svg">
 <path d="m4.866 1.002h10.304a3.864 3.864 45 0 1 3.864 3.864v10.304a3.864 3.864 135 0 1-3.864 3.864h-10.304a3.864 3.864 45 0 1-3.864-3.864v-10.304a3.864 3.864 135 0 1 3.864-3.864z" fill="#878787" fill-rule="evenodd" stroke-linecap="round" stroke-linejoin="round" stroke-width="1.001742"/>
 <path d="m7.003 6.702674v6.602652a2.701125 2.701125 45 0 0 2.701125 2.701125h2.300991a2.000817 2.000817 135 0 0 2.000817-2.000817h-4.301808a.700308.700308 45 0 1 -.700308-.700308v-6.602652a.700308.700308 135 0 1 .700308-.700308h4.301808a2.000817 2.000817 45 0 0 -2.000817-2.000817h-2.300991a2.701125 2.701125 135 0 0 -2.701125 2.701125z" fill="#feb13a" fill-rule="evenodd" stroke-width="1.000482"/>
</svg>
