<svg width="16" height="16" version="1.1" viewBox="0 0 16 16" xmlns="http://www.w3.org/2000/svg">
 <path d="m4 1h8a3 3 45 0 1 3 3v8a3 3 135 0 1-3 3h-8a3 3 45 0 1-3-3v-8a3 3 135 0 1 3-3z" fill="#878787" fill-rule="evenodd" stroke-linecap="round" stroke-linejoin="round"/>
 <path d="m5.488 5.48825v4.9875a1.995 1.995 45 0 0 1.995 1.995h1.995a1.49625 1.49625 135 0 0 1.49625-1.49625h-3.49125a.49875.49875 45 0 1 -.49875-.49875v-4.9875a.49875.49875 135 0 1 .49875-.49875h3.49125a1.49625 1.49625 45 0 0 -1.49625-1.49625h-1.995a1.995 1.995 135 0 0 -1.995 1.995z" fill="#feb13a" fill-rule="evenodd" stroke-width=".9975"/>
</svg>
