<?xml version="1.0" ?><!DOCTYPE svg  PUBLIC '-//W3C//DTD SVG 1.1//EN'  'http://www.w3.org/Graphics/SVG/1.1/DTD/svg11.dtd'><svg enable-background="new 0 0 96 96" height="96px" id="folder" version="1.1" viewBox="0 0 96 96" width="96px" xml:space="preserve" xmlns="http://www.w3.org/2000/svg" xmlns:xlink="http://www.w3.org/1999/xlink"><path d="M31.859,16l5.555,8.438L39.718,28H44h36c2.206,0,4,1.794,4,4v44c0,2.206-1.794,4-4,4H16c-2.206,0-4-1.794-4-4V20  c0-2.206,1.794-4,4-4h16 M36,8H16C9.37,8,4,13.37,4,20v56c0,6.63,5.37,12,12,12h64c6.63,0,12-5.37,12-12V32c0-6.63-5.37-12-12-12H44  L36,8L36,8z"/></svg>