<?xml version="1.0" ?><!DOCTYPE svg  PUBLIC '-//W3C//DTD SVG 1.1//EN'  'http://www.w3.org/Graphics/SVG/1.1/DTD/svg11.dtd'><svg enable-background="new 0 0 96 96" height="96px" id="cog" version="1.1" viewBox="0 0 96 96" width="96px" xml:space="preserve" xmlns="http://www.w3.org/2000/svg" xmlns:xlink="http://www.w3.org/1999/xlink"><path d="M84.084,60c6.582,0,11.918-5.336,11.918-11.916c0-6.582-5.336-11.918-11.918-11.918H82c-0.438-1.26-0.938-2.492-1.51-3.686  L82,30.968c4.652-4.651,4.652-12.196,0-16.854c-4.652-4.652-12.199-4.652-16.854,0l-1.469,1.469  c-1.189-0.576-2.418-1.084-3.678-1.528v-2.142c0-6.582-5.336-11.916-11.918-11.916c-6.581,0-11.916,5.334-11.916,11.916v2.084  c-1.261,0.438-2.494,0.938-3.687,1.51l-1.51-1.51c-4.654-4.654-12.199-4.654-16.854,0c-4.653,4.653-4.653,12.198,0.001,16.854  l1.468,1.471c-0.602,1.242-1.127,2.525-1.586,3.844h-2.083c-6.582,0-11.917,5.336-11.917,11.918C-0.002,54.664,5.333,60,11.915,60  h2.14c0.445,1.26,0.953,2.488,1.53,3.68l-1.469,1.471c-4.654,4.65-4.654,12.195,0,16.853c4.654,4.654,12.199,4.654,16.853,0  l1.51-1.51c1.193,0.567,2.425,1.067,3.687,1.51v2.084c0,6.58,5.335,11.916,11.916,11.916C54.664,96.003,60,90.667,60,84.087v-2.142  c1.258-0.444,2.486-0.952,3.678-1.528l1.469,1.469c4.654,4.652,12.199,4.654,16.854,0c4.654-4.651,4.652-12.198,0-16.854  l-1.51-1.512c0.545-1.141,1.027-2.313,1.453-3.52H84.084L84.084,60z M76.283,70.627c1.562,1.562,1.562,4.094,0.002,5.656  c-1.562,1.561-4.096,1.561-5.658,0l-5.857-5.857c-3.666,2.744-8.023,4.605-12.77,5.285V84c0,2.209-1.791,3.998-4,4  c-2.208,0-4-1.791-4-4v-8.289c-4.743-0.68-9.104-2.543-12.768-5.287l-5.859,5.859c-1.562,1.561-4.094,1.561-5.656,0  c-1.562-1.562-1.562-4.094,0-5.656l5.859-5.857c-2.745-3.666-4.607-8.024-5.286-12.77H12c-2.209,0-4-1.791-4-4s1.791-4,4-4h8.289  c0.679-4.744,2.541-9.104,5.286-12.768l-5.861-5.861c-1.561-1.562-1.56-4.094,0.002-5.656c1.561-1.562,4.096-1.562,5.656,0  l5.859,5.859c3.664-2.744,8.025-4.607,12.768-5.285v-8.291C44,9.791,45.792,8,48,8c2.209-0.002,4.002,1.791,4,4v8.289  c4.742,0.678,9.104,2.541,12.768,5.285l5.861-5.859c1.561-1.562,4.094-1.561,5.656,0c1.561,1.562,1.561,4.096,0,5.656l-5.859,5.859  c2.744,3.664,4.607,8.022,5.285,12.77H84c2.209,0,4,1.791,4,4s-1.791,4-4,4h-8.289c-0.678,4.742-2.541,9.104-5.285,12.77  L76.283,70.627z"/><path d="M48,32c-8.836,0-16,7.163-16,16s7.164,16,16,16s16-7.163,16-16S56.836,32,48,32z M48,56c-4.418,0-8-3.582-8-8s3.582-8,8-8  s8,3.582,8,8S52.418,56,48,56z"/></svg>