<?xml version="1.0" ?><!DOCTYPE svg  PUBLIC '-//W3C//DTD SVG 1.1//EN'  'http://www.w3.org/Graphics/SVG/1.1/DTD/svg11.dtd'><svg enable-background="new 0 0 96 96" height="96px" id="in" version="1.1" viewBox="0 0 96 96" width="96px" xml:space="preserve" xmlns="http://www.w3.org/2000/svg" xmlns:xlink="http://www.w3.org/1999/xlink"><path d="M88,60c-2.209,0-4,1.791-4,4v16c0,2.21-1.79,4-4,4H16c-2.21,0-4-1.79-4-4V64c0-2.209-1.791-4-4-4s-4,1.791-4,4v16  c0,6.63,5.37,12,12,12h64c6.63,0,12-5.37,12-12V64C92,61.791,90.209,60,88,60z"/><path d="M70.627,41.373c-1.562-1.562-4.094-1.562-5.656,0L52,54.344V8c0-2.209-1.791-4-4-4s-4,1.791-4,4v46.344L31.03,41.373  c-1.562-1.562-4.095-1.562-5.657,0c-1.562,1.562-1.562,4.094,0,5.656l19.799,19.799c1.562,1.562,4.095,1.562,5.656,0l19.8-19.799  C72.189,45.467,72.189,42.935,70.627,41.373z"/></svg>